<svg xmlns="http://www.w3.org/2000/svg" id="Layer_1" data-name="Layer 1" viewBox="0 0 1000 1000"><title>cnergyico_Logo</title><path d="M490.662,502.081q0,.9-.056,1.569a6.54,6.54,0,0,1-.195,1.177,3.947,3.947,0,0,1-.365.9,4.946,4.946,0,0,1-.784.953,16.319,16.319,0,0,1-2.353,1.709,28.294,28.294,0,0,1-4.455,2.241,37.252,37.252,0,0,1-6.107,1.849,35.24,35.24,0,0,1-7.536.756,33.063,33.063,0,0,1-12.745-2.353,25.742,25.742,0,0,1-9.694-6.948,31.653,31.653,0,0,1-6.162-11.345,56.938,56.938,0,0,1,.168-31.628A34.9,34.9,0,0,1,446.906,449a27.888,27.888,0,0,1,10.056-7.48,31.868,31.868,0,0,1,12.971-2.576,31.288,31.288,0,0,1,6.106.588,38.912,38.912,0,0,1,5.49,1.485,24.912,24.912,0,0,1,4.483,2.073,15.058,15.058,0,0,1,2.718,1.932,6.691,6.691,0,0,1,.981,1.149,3.862,3.862,0,0,1,.363.924,9.538,9.538,0,0,1,.225,1.261,15.461,15.461,0,0,1,.083,1.736,13.685,13.685,0,0,1-.112,1.905,5.335,5.335,0,0,1-.339,1.317,1.976,1.976,0,0,1-.534.785,1.17,1.17,0,0,1-.762.251,4.186,4.186,0,0,1-2.2-1.092,35.708,35.708,0,0,0-3.634-2.409,29.33,29.33,0,0,0-5.407-2.409,23.61,23.61,0,0,0-7.631-1.092,19.877,19.877,0,0,0-8.815,1.932,18.606,18.606,0,0,0-6.787,5.687,27.911,27.911,0,0,0-4.367,9.16,50.292,50.292,0,0,0-.056,24.541,25.307,25.307,0,0,0,4.281,8.852,17.891,17.891,0,0,0,6.843,5.378,22.167,22.167,0,0,0,9.182,1.822,24.291,24.291,0,0,0,7.575-1.065,29.489,29.489,0,0,0,5.52-2.381,43.581,43.581,0,0,0,3.746-2.381,4.478,4.478,0,0,1,2.309-1.065,1.3,1.3,0,0,1,.676.168,1.183,1.183,0,0,1,.451.644,5.868,5.868,0,0,1,.253,1.317Q490.662,500.794,490.662,502.081Z" fill="#6d6166"/><path d="M545.794,510.934a1.265,1.265,0,0,1-.224.756,1.77,1.77,0,0,1-.73.532,5.138,5.138,0,0,1-1.4.336,18.534,18.534,0,0,1-2.24.112,19.06,19.06,0,0,1-2.3-.112,5.155,5.155,0,0,1-1.4-.336,1.762,1.762,0,0,1-.728-.532,1.252,1.252,0,0,1-.224-.756V481.407a29.04,29.04,0,0,0-.672-6.947,14.433,14.433,0,0,0-1.961-4.539,8.528,8.528,0,0,0-3.334-2.914A10.593,10.593,0,0,0,525.848,466a11.953,11.953,0,0,0-6.948,2.465,37.643,37.643,0,0,0-7.284,7.227v35.242a1.251,1.251,0,0,1-.223.756,1.759,1.759,0,0,1-.729.532,5.147,5.147,0,0,1-1.4.336,19.117,19.117,0,0,1-2.3.112,18.506,18.506,0,0,1-2.241-.112,5.57,5.57,0,0,1-1.429-.336,1.542,1.542,0,0,1-.729-.532,1.376,1.376,0,0,1-.195-.756V460.508a1.567,1.567,0,0,1,.168-.756,1.5,1.5,0,0,1,.671-.559,3.809,3.809,0,0,1,1.29-.337,20.314,20.314,0,0,1,2.073-.084q1.232,0,2.044.084a3.309,3.309,0,0,1,1.261.337,1.768,1.768,0,0,1,.644.559,1.383,1.383,0,0,1,.2.756v6.668a30.976,30.976,0,0,1,8.487-6.975,18.266,18.266,0,0,1,8.545-2.213,18.986,18.986,0,0,1,8.487,1.708,15.288,15.288,0,0,1,5.575,4.567,18.214,18.214,0,0,1,3.055,6.7,39.928,39.928,0,0,1,.924,9.216Z" fill="#6d6166"/><path d="M605.686,483.536a3.871,3.871,0,0,1-1.1,3.11,3.788,3.788,0,0,1-2.506.924H568.876a31.039,31.039,0,0,0,.845,7.563,14.565,14.565,0,0,0,2.814,5.772,12.678,12.678,0,0,0,5.124,3.7,20.417,20.417,0,0,0,7.712,1.288,31.583,31.583,0,0,0,6.419-.588,38.034,38.034,0,0,0,4.869-1.317q2.057-.728,3.379-1.317a5.537,5.537,0,0,1,2-.588,1.292,1.292,0,0,1,.7.2,1.275,1.275,0,0,1,.48.589,4.113,4.113,0,0,1,.252,1.092,14.665,14.665,0,0,1,.085,1.708c0,.486-.02.907-.056,1.261s-.085.673-.141.953a2.427,2.427,0,0,1-.279.756,3.212,3.212,0,0,1-.5.644,8.262,8.262,0,0,1-1.822,1.01,26.47,26.47,0,0,1-3.921,1.372,55.038,55.038,0,0,1-5.575,1.2,40.831,40.831,0,0,1-6.751.532,31.245,31.245,0,0,1-10.9-1.737,20.2,20.2,0,0,1-7.871-5.155,22.023,22.023,0,0,1-4.819-8.572,39.961,39.961,0,0,1-1.624-11.989,37.765,37.765,0,0,1,1.68-11.682,24.732,24.732,0,0,1,4.847-8.8,21.187,21.187,0,0,1,7.647-5.548,25.089,25.089,0,0,1,10.029-1.932,24.253,24.253,0,0,1,10.113,1.9,19.116,19.116,0,0,1,6.863,5.126,20.592,20.592,0,0,1,3.95,7.563,33.1,33.1,0,0,1,1.261,9.273Zm-9.3-2.745q.168-7.283-3.241-11.43t-10.119-4.146a13.4,13.4,0,0,0-6.032,1.289,13.071,13.071,0,0,0-4.34,3.417,15.635,15.635,0,0,0-2.706,4.959,20.708,20.708,0,0,0-1.071,5.911Z" fill="#6d6166"/><path d="M649.22,463.815q0,1.233-.056,2.073a5.16,5.16,0,0,1-.224,1.316,1.92,1.92,0,0,1-.42.728.946.946,0,0,1-.7.253,3.111,3.111,0,0,1-1.093-.253q-.645-.251-1.456-.5c-.542-.169-1.149-.327-1.822-.478a10.15,10.15,0,0,0-2.185-.223,7.086,7.086,0,0,0-2.745.56,10.747,10.747,0,0,0-2.83,1.849,23.024,23.024,0,0,0-3.109,3.418q-1.626,2.13-3.585,5.21v33.169a1.252,1.252,0,0,1-.225.756,1.755,1.755,0,0,1-.728.532,5.165,5.165,0,0,1-1.4.336,19.117,19.117,0,0,1-2.3.112,18.506,18.506,0,0,1-2.241-.112,5.581,5.581,0,0,1-1.429-.336,1.542,1.542,0,0,1-.729-.532,1.384,1.384,0,0,1-.2-.756V460.508a1.567,1.567,0,0,1,.168-.756,1.49,1.49,0,0,1,.673-.559,3.79,3.79,0,0,1,1.288-.337,20.327,20.327,0,0,1,2.073-.084q1.232,0,2.045.084a3.308,3.308,0,0,1,1.26.337,1.78,1.78,0,0,1,.645.559,1.392,1.392,0,0,1,.2.756v7.34a39.333,39.333,0,0,1,3.894-4.93,21.441,21.441,0,0,1,3.446-3,10.674,10.674,0,0,1,3.221-1.512,12.61,12.61,0,0,1,3.222-.42c.485,0,1.036.027,1.652.084a15.532,15.532,0,0,1,1.933.307,17.316,17.316,0,0,1,1.822.5,3.893,3.893,0,0,1,1.148.56,1.566,1.566,0,0,1,.447.532,3.334,3.334,0,0,1,.2.644,7.23,7.23,0,0,1,.112,1.149Q649.221,462.527,649.22,463.815Z" fill="#6d6166"/><path d="M700.317,462.805a5.649,5.649,0,0,1-.532,2.831,1.576,1.576,0,0,1-1.373.868h-7.227a11.355,11.355,0,0,1,2.745,4.454,16.441,16.441,0,0,1,.784,5.07,19.984,19.984,0,0,1-1.4,7.733,15.481,15.481,0,0,1-4.006,5.685A17.9,17.9,0,0,1,683.116,493a24.31,24.31,0,0,1-7.955,1.234,20.7,20.7,0,0,1-5.855-.813,12.2,12.2,0,0,1-4.286-2.045,8.755,8.755,0,0,0-1.653,2.3,6.553,6.553,0,0,0-.644,2.97,3.851,3.851,0,0,0,1.821,3.249,8.786,8.786,0,0,0,4.846,1.4l13.167.561a27.277,27.277,0,0,1,6.89,1.036,17.16,17.16,0,0,1,5.436,2.634,12.134,12.134,0,0,1,3.585,4.2,12.457,12.457,0,0,1,1.289,5.8,15.524,15.524,0,0,1-1.457,6.611,15.255,15.255,0,0,1-4.454,5.519,22.362,22.362,0,0,1-7.648,3.754,39.051,39.051,0,0,1-10.981,1.373,44.92,44.92,0,0,1-10.394-1.037,22.543,22.543,0,0,1-7.031-2.829,10.968,10.968,0,0,1-3.978-4.287,12.027,12.027,0,0,1-1.232-5.407,14.275,14.275,0,0,1,.447-3.585,12.807,12.807,0,0,1,1.373-3.306,16.3,16.3,0,0,1,2.3-3,30.164,30.164,0,0,1,3.166-2.83,9.884,9.884,0,0,1-4.061-3.529,8.575,8.575,0,0,1-1.317-4.594,13.02,13.02,0,0,1,1.4-6.107,20.313,20.313,0,0,1,3.473-4.819,16.47,16.47,0,0,1-2.744-4.678,17.483,17.483,0,0,1-1.009-6.3,19.552,19.552,0,0,1,1.457-7.732,16.4,16.4,0,0,1,4.034-5.771,17.687,17.687,0,0,1,6.191-3.614,23.758,23.758,0,0,1,7.872-1.26,34.179,34.179,0,0,1,4.286.252,29.977,29.977,0,0,1,3.725.7h15.24a1.528,1.528,0,0,1,1.429.924A6.461,6.461,0,0,1,700.317,462.805Zm-9.805,53.228a5.673,5.673,0,0,0-2.661-5.016,13.508,13.508,0,0,0-7.2-1.876l-13.054-.449a24.075,24.075,0,0,0-2.943,2.661,14.615,14.615,0,0,0-1.82,2.41,7.913,7.913,0,0,0-.924,2.27,10.364,10.364,0,0,0-.253,2.3q0,3.642,3.7,5.518t10.309,1.878a25.9,25.9,0,0,0,7.031-.813,13.467,13.467,0,0,0,4.566-2.157,7.911,7.911,0,0,0,2.494-3.081A9.019,9.019,0,0,0,690.512,516.033Zm-4.65-39.949q0-5.154-2.829-8.04t-8.041-2.885a11.305,11.305,0,0,0-4.677.9,9.155,9.155,0,0,0-3.307,2.465,10.441,10.441,0,0,0-1.961,3.614,14.193,14.193,0,0,0-.644,4.286,10.654,10.654,0,0,0,2.83,7.843q2.829,2.857,7.928,2.858a11.961,11.961,0,0,0,4.762-.869,8.971,8.971,0,0,0,3.334-2.409,10.178,10.178,0,0,0,1.961-3.558A13.767,13.767,0,0,0,685.862,476.084Z" fill="#6d6166"/><path d="M735.165,512.334l-6.724,18.546a2.544,2.544,0,0,1-1.708,1.371,13.592,13.592,0,0,1-4.174.477,15.915,15.915,0,0,1-2.354-.14,3.274,3.274,0,0,1-1.372-.476,1.2,1.2,0,0,1-.532-.9,2.789,2.789,0,0,1,.28-1.344l6.948-17.537a3.1,3.1,0,0,1-1.569-1.793l-17.985-48.183a5.618,5.618,0,0,1-.449-1.85,1.343,1.343,0,0,1,.449-1.064,2.823,2.823,0,0,1,1.456-.532,20.528,20.528,0,0,1,2.69-.14q1.68,0,2.633.084a5.541,5.541,0,0,1,1.513.308,1.6,1.6,0,0,1,.812.644,7.668,7.668,0,0,1,.532,1.149l14.4,40.451h.168l13.894-40.675a2.508,2.508,0,0,1,.813-1.373,3.684,3.684,0,0,1,1.428-.448,20.308,20.308,0,0,1,2.746-.14,19.456,19.456,0,0,1,2.578.14,3,3,0,0,1,1.483.532,1.307,1.307,0,0,1,.478,1.064,5.545,5.545,0,0,1-.337,1.682Z" fill="#6d6166"/><path d="M774.44,443.476q0,3.252-1.232,4.426t-4.538,1.177q-3.249,0-4.455-1.148t-1.2-4.343q0-3.248,1.232-4.426t4.538-1.176q3.247,0,4.454,1.148T774.44,443.476Zm-1.063,67.458a1.252,1.252,0,0,1-.225.756,1.753,1.753,0,0,1-.729.532,5.147,5.147,0,0,1-1.4.336,19.117,19.117,0,0,1-2.3.112,18.506,18.506,0,0,1-2.241-.112,5.581,5.581,0,0,1-1.429-.336,1.542,1.542,0,0,1-.729-.532,1.376,1.376,0,0,1-.2-.756V460.508a1.416,1.416,0,0,1,.2-.727,1.46,1.46,0,0,1,.729-.561,5.666,5.666,0,0,1,1.429-.336,18.506,18.506,0,0,1,2.241-.112,19.117,19.117,0,0,1,2.3.112,5.223,5.223,0,0,1,1.4.336,1.642,1.642,0,0,1,.729.561,1.29,1.29,0,0,1,.225.727Z" fill="#6d6166"/><path d="M826.714,503.257c0,.637-.018,1.187-.056,1.653a6.016,6.016,0,0,1-.2,1.178,4.377,4.377,0,0,1-.337.839,5.478,5.478,0,0,1-.9,1.065,13.771,13.771,0,0,1-2.38,1.737,22.983,22.983,0,0,1-3.782,1.849,28.435,28.435,0,0,1-4.566,1.316,25.341,25.341,0,0,1-5.1.5,24.361,24.361,0,0,1-9.636-1.793,18.208,18.208,0,0,1-7.033-5.238,23.824,23.824,0,0,1-4.314-8.462,40.862,40.862,0,0,1-1.483-11.569,39.907,39.907,0,0,1,1.82-12.8,24.17,24.17,0,0,1,4.986-8.769,19.742,19.742,0,0,1,7.451-5.07,25.579,25.579,0,0,1,9.274-1.652,24.229,24.229,0,0,1,4.678.447,25.884,25.884,0,0,1,4.175,1.178,18.541,18.541,0,0,1,3.388,1.68,13.6,13.6,0,0,1,2.158,1.625,7.194,7.194,0,0,1,.924,1.065,3.829,3.829,0,0,1,.42.924,5.512,5.512,0,0,1,.224,1.2q.057.672.056,1.68a6.564,6.564,0,0,1-.5,3.054,1.446,1.446,0,0,1-1.232.868,3.2,3.2,0,0,1-1.934-.924,30.612,30.612,0,0,0-2.773-2.045,21.06,21.06,0,0,0-4.061-2.045,15.532,15.532,0,0,0-5.631-.925,11.689,11.689,0,0,0-10.225,5.127q-3.558,5.125-3.558,14.876a35.254,35.254,0,0,0,.924,8.543,17.691,17.691,0,0,0,2.717,6.136,11.225,11.225,0,0,0,4.4,3.67,14.068,14.068,0,0,0,5.967,1.2,14.4,14.4,0,0,0,5.6-1.008,23.439,23.439,0,0,0,4.175-2.213q1.764-1.2,2.969-2.184A3.518,3.518,0,0,1,825.2,499a1.053,1.053,0,0,1,.672.224,1.737,1.737,0,0,1,.477.758,5.716,5.716,0,0,1,.28,1.344A19.159,19.159,0,0,1,826.714,503.257Z" fill="#6d6166"/><path d="M884.927,485.161a37.8,37.8,0,0,1-1.624,11.345,25.048,25.048,0,0,1-4.846,8.936,21.956,21.956,0,0,1-8.069,5.855,28.009,28.009,0,0,1-11.233,2.1,29.1,29.1,0,0,1-10.841-1.849,19.8,19.8,0,0,1-7.7-5.379,22.786,22.786,0,0,1-4.6-8.572,39.751,39.751,0,0,1-1.512-11.43,38.411,38.411,0,0,1,1.6-11.346,24.7,24.7,0,0,1,4.819-8.935,21.729,21.729,0,0,1,8.04-5.827,28.308,28.308,0,0,1,11.262-2.073,29.049,29.049,0,0,1,10.84,1.849,19.8,19.8,0,0,1,7.7,5.378,23.108,23.108,0,0,1,4.622,8.572A38.854,38.854,0,0,1,884.927,485.161Zm-9.58.617a37.643,37.643,0,0,0-.764-7.733,19,19,0,0,0-2.516-6.387,12.489,12.489,0,0,0-4.749-4.342,15.73,15.73,0,0,0-7.462-1.6,15.962,15.962,0,0,0-7.1,1.457,13.021,13.021,0,0,0-4.89,4.118,18.452,18.452,0,0,0-2.854,6.3,32.067,32.067,0,0,0-.933,7.956,37.841,37.841,0,0,0,.764,7.788,18.31,18.31,0,0,0,2.544,6.359,12.79,12.79,0,0,0,4.776,4.315,15.755,15.755,0,0,0,7.463,1.6,15.986,15.986,0,0,0,7.066-1.456,13.025,13.025,0,0,0,4.919-4.09,17.775,17.775,0,0,0,2.826-6.275A33.224,33.224,0,0,0,875.347,485.778Z" fill="#6d6166"/><path d="M255.273,486.551c7.111,2.706,12.812,8.962,15.9,16.4a35.894,35.894,0,0,1,2.617,11.866,39.164,39.164,0,0,1-1.446,12.225,36,36,0,0,1-14.107,19.621c-6.629,4.6-14.959,6.58-22.34,4.828a71.655,71.655,0,0,0,8.775-5.876,45.073,45.073,0,0,0,6.777-6.691c1.014-1.147,1.85-2.431,2.742-3.623.39-.647.772-1.29,1.191-1.9s.715-1.3,1.08-1.941.689-1.3.99-1.968a16.82,16.82,0,0,0,.876-2.011c.256-.684.567-1.344.81-2.03l.646-2.088c.251-.685.364-1.41.561-2.112l.264-1.063c.056-.361.1-.724.175-1.083a22.017,22.017,0,0,0,.372-2.171c.068-.733.132-1.468.247-2.206a46.941,46.941,0,0,0-.117-9.039A56.77,56.77,0,0,0,255.273,486.551Z" fill="#e17726"/><path d="M165.606,540.156a71.133,71.133,0,0,0,25.255,2.427,28.1,28.1,0,0,0,2.966-.417l2.924-.437c.959-.238,1.907-.494,2.86-.689.474-.11.953-.192,1.422-.321l1.385-.461c.917-.324,1.852-.563,2.767-.869l2.675-1.1c.439-.2.908-.321,1.336-.542l1.291-.647c.852-.444,1.742-.816,2.567-1.308a47.642,47.642,0,0,0,4.877-3.082,26.581,26.581,0,0,0,2.356-1.683c.744-.617,1.473-1.252,2.249-1.844a58.293,58.293,0,0,0,8.093-8.554c1.338-1.518,2.285-3.28,3.526-4.939l1.532-2.673c.265-.448.548-.893.8-1.351l.669-1.414c2.057-3.742,3.342-7.842,4.979-12.234.318,1.107.533,2.235.8,3.384l.334,1.734c.081.579.094,1.156.144,1.742.092,1.17.13,2.349.182,3.546-.035,1.179-.157,2.355-.24,3.554l-.174,1.8c-.1.589-.224,1.172-.338,1.763-.235,1.179-.514,2.355-.781,3.546-.36,1.152-.771,2.293-1.177,3.446-.209.573-.4,1.16-.628,1.726l-.791,1.651c-.548,1.093-1.056,2.222-1.658,3.3l-2,3.113a24.45,24.45,0,0,1-2.222,2.972c-.808.936-1.534,1.961-2.426,2.825a51.032,51.032,0,0,1-11.789,9.14,48.7,48.7,0,0,1-14.045,5.051l-1.829.362c-.614.094-1.236.138-1.852.207-1.234.137-2.473.213-3.7.308a64.1,64.1,0,0,1-7.364-.337C180.894,551.6,171.668,547.214,165.606,540.156Z" fill="#e4dfdc"/><path d="M116.831,473.677a86.659,86.659,0,0,0,8.389,13.229c.816.954,1.494,1.964,2.351,2.855s1.653,1.8,2.465,2.679q1.337,1.239,2.611,2.476c.815.855,1.85,1.508,2.707,2.3a65.963,65.963,0,0,0,11.626,7.557,64.715,64.715,0,0,0,6.29,2.677c.536.189,1.058.412,1.585.622l1.632.489c1.1.291,2.151.733,3.277.917a66.413,66.413,0,0,0,27.456.973c9.387-1.558,18.579-5.289,28.02-11.026-4.347,10.232-13.5,18.537-24.333,23.055a55.685,55.685,0,0,1-35.051,2.51c-1.472-.3-2.874-.879-4.31-1.314l-2.137-.714c-.692-.294-1.389-.575-2.071-.891a60.271,60.271,0,0,1-7.949-4.2,53.754,53.754,0,0,1-13.114-12.009C118.941,496.63,115.287,484.641,116.831,473.677Z" fill="#fdd284"/><path d="M131.494,382.73c-3.042,12.11-4.061,23.383-2.535,34.1A71.8,71.8,0,0,0,139.7,446.155c5.5,8.882,13.1,16.451,21.886,23,8.916,6.467,19.166,11.423,30.849,15.91A54.974,54.974,0,0,1,173.6,486.1a65.3,65.3,0,0,1-18.715-4.963c-11.917-5.339-22.8-14.1-29.923-25.631l-1.338-2.151a16.877,16.877,0,0,1-1.237-2.21c-.738-1.524-1.489-3.042-2.2-4.576a17.662,17.662,0,0,1-.941-2.356l-.839-2.4a33.2,33.2,0,0,1-1.47-4.849l-1.062-4.953a49.688,49.688,0,0,1-.561-5.02,58.965,58.965,0,0,1-.033-10.014C116.374,403.742,122.124,391.077,131.494,382.73Z" fill="#5b9ccf"/><path d="M183.95,450.126A56.293,56.293,0,0,1,165.9,438.209a65.955,65.955,0,0,1-13.015-18.222,68.261,68.261,0,0,1-4.668-45.326,71.978,71.978,0,0,1,8.941-21.414,71.158,71.158,0,0,1,15.153-17.054c11.622-9.6,26.157-15.127,40.438-15.113a183.022,183.022,0,0,0-16.109,12.562,99.4,99.4,0,0,0-12.994,13.863,92.372,92.372,0,0,0-9.681,15.3,82.063,82.063,0,0,0-5.931,16.542l-.492,2.132a15.7,15.7,0,0,0-.414,2.147l-.674,4.33c-.11,1.459-.2,2.92-.353,4.384-.172,1.465-.079,2.937-.175,4.415a84.27,84.27,0,0,0,1.968,17.81,94.067,94.067,0,0,0,6.08,17.816A148.315,148.315,0,0,0,183.95,450.126Z" fill="#351f21"/><path d="M194.1,423.432a66.611,66.611,0,0,1-2.165-13.73c-.216-2.343-.125-4.658-.136-7.02,0-1.181.123-2.34.191-3.518.084-1.174.145-2.361.3-3.53a94.4,94.4,0,0,1,2.68-14.019,92.989,92.989,0,0,1,4.935-13.592A94.811,94.811,0,0,1,239.3,324.732a97.932,97.932,0,0,1,13.755-6.333,92.942,92.942,0,0,1,14.652-3.878,84.718,84.718,0,0,1,29.894.141c19.515,3.618,37.151,14.512,47.367,29.97-4.412-1.479-8.639-2.869-12.83-4.025-4.2-1.138-8.315-2.1-12.407-2.793a108.341,108.341,0,0,0-23.881-1.462,97.21,97.21,0,0,0-42.959,12.442c-13.008,7.341-24.51,17.672-34.291,30.211-2.492,3.113-4.728,6.45-7.019,9.839-2.175,3.444-4.387,6.971-6.351,10.689A250.207,250.207,0,0,0,194.1,423.432Z" fill="#6c1029"/><path d="M240.319,400.7a58.056,58.056,0,0,1,8.2-12.3,76.017,76.017,0,0,1,10.9-10.424,89.375,89.375,0,0,1,27.231-14.078,96.535,96.535,0,0,1,30.851-4.45l3.931.084,3.914.321c1.3.122,2.617.2,3.912.4l3.882.637,3.879.682a35.3,35.3,0,0,1,3.845.869c2.543.683,5.087,1.37,7.615,2.11a103.478,103.478,0,0,1,28.1,14.385c2.089,1.628,4.283,3.087,6.216,4.9,1.964,1.774,3.908,3.556,5.791,5.389q2.681,2.93,5.261,5.9c1.66,2.041,3.143,4.24,4.691,6.341a80.113,80.113,0,0,1,12.23,28.476,66.117,66.117,0,0,1,1.377,15.138c-.16,2.527-.268,5-.653,7.446-.5,2.461-1.012,4.864-1.679,7.2a107.064,107.064,0,0,0-28.76-43.509c-1.575-1.336-3.036-2.745-4.645-4-1.639-1.231-3.25-2.465-4.826-3.717-1.675-1.151-3.389-2.237-5.028-3.394a23.889,23.889,0,0,0-2.573-1.585l-2.6-1.53a126.082,126.082,0,0,0-21.938-9.8c-3.871-1.087-7.692-2.366-11.675-3.117l-2.958-.695c-.99-.219-2-.335-2.993-.529l-3-.525-3.022-.379a125.687,125.687,0,0,0-24.6-.716A129.963,129.963,0,0,0,266,390.583c-4.194,1.243-8.486,2.594-12.719,4.322C248.964,396.532,244.809,398.612,240.319,400.7Z" fill="#161817"/><path d="M369.044,604.22c3.682-10.72,6.64-20.727,8.147-30.835.171-1.266.407-2.5.606-3.735l.421-3.749c.331-2.465.461-4.962.673-7.4.193-4.941.37-9.785.127-14.611a145.454,145.454,0,0,0-3.781-28.206c-1.041-4.588-2.355-9.092-3.8-13.522-1.492-4.419-3.2-8.739-5.082-12.97a130.8,130.8,0,0,0-32.718-44.642,117.2,117.2,0,0,0-23.964-16.3,113.561,113.561,0,0,0-14.1-6.036c-4.954-1.747-10.153-3.2-15.673-4.555a61.065,61.065,0,0,1,16.449-4.739,75.885,75.885,0,0,1,17.557-.558,88.037,88.037,0,0,1,17.562,3.4,89.228,89.228,0,0,1,16.76,6.855c21.567,11.3,38.718,30.657,48.641,52.869a126.758,126.758,0,0,1,6.166,17.144,121.326,121.326,0,0,1,3.456,17.793,112.561,112.561,0,0,1-1.341,35.892,101.057,101.057,0,0,1-12.7,32.956l-1.138,1.865-1.237,1.81c-.828,1.2-1.632,2.4-2.491,3.566l-2.727,3.387c-.456.558-.9,1.119-1.37,1.662l-1.484,1.582c-1,1.041-1.958,2.092-2.975,3.093l-3.193,2.868a39.144,39.144,0,0,1-3.324,2.671C371.372,602.622,370.211,603.435,369.044,604.22Z" fill="#432e7e"/><path d="M306.042,460.163c1.365.759,2.729,1.553,4.076,2.389.683.41,1.351.841,2.019,1.277l1.909,1.4,3.792,2.93c1.2,1.038,2.348,2.139,3.536,3.227l1.774,1.652c.577.563,1.094,1.165,1.641,1.753l3.262,3.59c1.072,1.218,2,2.521,3.007,3.8.976,1.292,2.021,2.569,2.9,3.924a118.857,118.857,0,0,1,16.368,35.562,139.277,139.277,0,0,1,4.775,39.2l-.121,4.963-.389,4.944c-.134,1.648-.269,3.3-.454,4.944l-.679,4.92a149.966,149.966,0,0,1-4.3,19.438A141.626,141.626,0,0,1,332.7,636.5a122.635,122.635,0,0,1-26.832,29.973,95.291,95.291,0,0,1-35.844,18.055,73.266,73.266,0,0,1-19.683,2.171,55.506,55.506,0,0,1-18.812-3.666c24.069-7.259,40.571-21.4,53.522-37.853,12.819-16.581,21.9-35.615,27.816-55.751l1.1-3.783.969-3.826c.364-1.266.627-2.559.925-3.844s.6-2.568.852-3.867l.8-3.887.653-3.916.672-3.923c.147-1.314.341-2.627.514-3.943a205.555,205.555,0,0,0,1.685-32.016,189.191,189.191,0,0,0-3.941-32.717A171.415,171.415,0,0,0,306.042,460.163Z" fill="#006752"/></svg>