<svg xmlns="http://www.w3.org/2000/svg" xmlns:xlink="http://www.w3.org/1999/xlink" id="Layer_1" x="0px" y="0px" viewBox="0 0 223 137" style="enable-background:new 0 0 223 137;" xml:space="preserve"><style type="text/css">	.st0{fill:#011E41;}</style><path class="st0" d="M54.2,70.5c-0.1,0.4-0.1,0.8-0.2,1.2c3-2,5.7-4.4,8-7.2c-0.2-1-0.4-1.9-0.7-2.9C59.5,65.1,57.1,68.1,54.2,70.5z "></path><path class="st0" d="M54.3,68.2c2.4-2.7,4.4-5.7,5.8-9c-0.4-0.9-1-1.8-1.5-2.6c-0.7,3.7-2.2,7.2-4.4,10.3 C54.3,67.3,54.3,67.7,54.3,68.2z"></path><path class="st0" d="M62.3,67.5c-1.8,2.5-5.5,5-9.3,6.9c-0.2,0.4-0.4,0.7-0.6,1.1c3.3-1.1,6.4-2.6,9.2-4.5c-0.2,1.3-0.6,2.6-1.2,3.9 c-3.1,1.5-6.4,2.4-9.9,2.9c-0.3,0.3-0.6,0.6-1,0.9c3.3,0,6.5-0.5,9.6-1.6c-0.8,1.3-1.8,2.4-3,3.4c-2.9,0.3-5.9,0.1-8.8-0.4 c-0.4,0.2-0.8,0.4-1.1,0.6c2.3,0.9,4.8,1.5,7.3,1.7c-1,0.6-2.1,1.1-3.2,1.5c-2.3-0.6-4.5-1.4-6.6-2.4c-0.5,0.1-1,0.2-1.5,0.2 c1.7,1.2,3.5,2.1,5.4,3c-1.1,0.2-2.1,0.3-3.2,0.4c-0.2,0-0.4,0-0.7,0c-1.4-1-2.7-2.1-4-3.3c-0.6-0.1-1.2-0.1-1.8-0.3 c1,1.2,2.1,2.3,3.3,3.3c-1.2-0.2-2.5-0.6-3.6-1.1c-0.7-1-1.3-2-1.9-3c-0.6-0.2-1.1-0.5-1.6-0.9c0.4,0.9,0.9,1.8,1.4,2.7 c-1.1-0.7-2.1-1.5-3.1-2.4c-0.5-0.9-0.9-1.7-1.2-2.6c-4.9-5.4-4.5-13.7,0.9-18.6s13.7-4.5,18.6,0.9c1.3,1.4,2.3,3.1,2.8,4.9 c1.5-3.4,2.4-7,2.6-10.8c-0.7-0.7-1.4-1.4-2.2-2c0.5,3.5,0.3,7.1-0.7,10.6c-0.4-0.8-0.9-1.6-1.4-2.4c0.2-3.4-0.2-6.9-1.1-10.2 c-0.9-0.5-1.8-0.9-2.7-1.2c1.6,3.2,2.5,6.6,2.7,10.1c-0.6-0.7-1.3-1.4-2-2c-1-3.2-2.4-6.3-4.2-9.1c-0.9-0.2-1.8-0.3-2.8-0.3 c2.2,2.4,4,5.1,5.3,8c-0.9-0.6-1.9-1.2-3-1.6c-1.6-2.3-3.6-4.4-5.7-6.3c-0.9,0.1-1.8,0.3-2.7,0.5c2.2,1.3,4.1,3,5.9,4.8 c-1.1-0.3-2.3-0.5-3.4-0.6c-1.7-1.2-3.4-2.3-5.3-3.3c-0.9,0.4-1.8,0.8-2.6,1.3c1.8,0.3,3.6,0.9,5.2,1.9c-1,0.1-2.1,0.2-3.1,0.4 c-1.3-0.4-2.7-0.8-4.1-1c-0.8,0.6-1.6,1.3-2.3,2c1.1-0.2,2.3-0.2,3.4-0.1c-2.2,0.8-4.2,1.9-6,3.2c-6.5,9.7-4,22.8,5.7,29.4 c9.7,6.5,22.8,4,29.4-5.7c2.4-3.5,3.6-7.6,3.6-11.9C62.3,68.2,62.3,67.8,62.3,67.5z"></path><polygon class="st0" points="113.9,53.3 110.9,53.3 106,60.2 101.1,53.3 98,53.3 104.1,61.5 98,69.8 101,69.8 106,62.7 110.9,69.8  114,69.8 107.9,61.5 "></polygon><path class="st0" d="M175.7,63.9c2.1-0.8,3.4-2.8,3.3-5c0-3.6-2.5-5.6-6.7-5.6h-7.2v16.4h2.7v-5.2h4.9c1.6,1.5,2.8,3.3,3.8,5.2h3.3 C178.8,67.6,177.4,65.6,175.7,63.9z M167.9,55.7h4.4c2.4,0,3.9,1.1,3.9,3.3c0,2.2-1.5,3.2-3.8,3.2h-4.6L167.9,55.7z"></path><path class="st0" d="M194.3,53.3h-6.1v16.4h6.1c5.3,0,8.7-3.3,8.7-8.2C203,56.6,199.6,53.3,194.3,53.3z M194.1,67.3h-3.2V55.7h3.2 c3.5,0,6.2,2.1,6.2,5.8C200.2,65.3,197.6,67.3,194.1,67.3z"></path><path class="st0" d="M82.7,52.9c-4.8,0-8.7,3.8-8.8,8.6c0.1,4.8,4.1,8.7,8.9,8.6c4.7-0.1,8.5-3.9,8.6-8.6 C91.4,56.7,87.5,52.9,82.7,52.9z M82.7,67.6c-3.4,0-6.2-2.7-6.2-6.1c0-3.4,2.9-6.2,6.3-6.1c3.4,0,6.1,2.8,6.1,6.1 C88.9,64.9,86.1,67.6,82.7,67.6L82.7,67.6z"></path><path class="st0" d="M148.5,52.9c-4.8,0-8.7,3.8-8.8,8.6c0.1,4.8,4.1,8.7,8.9,8.6c4.7-0.1,8.5-3.9,8.6-8.6 C157.1,56.7,153.2,52.9,148.5,52.9z M148.5,67.6c-3.4,0-6.2-2.7-6.2-6.1c0-3.4,2.9-6.2,6.3-6.1c3.4,0,6.1,2.8,6.1,6.1 C154.6,64.9,151.8,67.6,148.5,67.6L148.5,67.6z"></path><path class="st0" d="M121.3,69.8h2.7v-5.9h7.9c0.5-0.7,0.9-1.5,1.2-2.4H124v-5.7h10v-2.4h-12.7L121.3,69.8z"></path><path class="st0" d="M175.7,79c0-1.5-1.1-2.3-2.8-2.3h-3.1v6.9h1.2v-2.2h2.1c0.7,0.6,1.2,1.4,1.6,2.2h1.4c-0.5-0.9-1.1-1.7-1.8-2.4 C175.2,80.9,175.8,80,175.7,79z M172.8,80.4H171v-2.7h1.8c1,0,1.7,0.4,1.7,1.4C174.5,80,173.9,80.4,172.8,80.4z"></path><path class="st0" d="M80.6,80.7c0.1,1-0.7,1.9-1.8,2c-1,0.1-1.9-0.7-2-1.8c0-0.1,0-0.1,0-0.2v-4h-1.2v4c-0.1,1.6,1.1,3,2.7,3.1 c0.1,0,0.2,0,0.4,0c1.6,0.1,2.9-1.1,3-2.7c0-0.1,0-0.3,0-0.4v-4h-1.2V80.7z"></path><path class="st0" d="M188.9,78.4c0-0.5,0.4-0.8,1.3-0.8c0.7,0,1.4,0.2,2,0.6l0.6-0.9c-0.8-0.5-1.7-0.7-2.6-0.7c-1.5,0-2.6,0.7-2.6,2 c0,2.6,4.1,1.7,4.1,3.3c0,0.5-0.6,1-1.4,1c-0.9,0-1.7-0.3-2.3-0.9l-0.6,0.9c0.8,0.7,1.9,1.1,2.9,1.1c1.5,0,2.7-0.9,2.7-2.1 C193.1,79.2,188.9,80,188.9,78.4z"></path><path class="st0" d="M127.8,78.4c0-0.5,0.4-0.8,1.3-0.8c0.7,0,1.4,0.2,2,0.6l0.6-0.9c-0.8-0.5-1.7-0.7-2.6-0.7c-1.5,0-2.6,0.7-2.6,2 c0,2.6,4.1,1.7,4.1,3.3c0,0.5-0.6,1-1.4,1c-0.9,0-1.7-0.3-2.3-0.9l-0.6,0.9c0.8,0.7,1.9,1.1,2.9,1.1c1.5,0,2.7-0.9,2.7-2.1 C132,79.2,127.8,80,127.8,78.4z"></path><path class="st0" d="M197.2,78.4c0-0.5,0.4-0.8,1.3-0.8c0.7,0,1.4,0.2,2,0.6l0.6-0.9c-0.8-0.5-1.7-0.7-2.6-0.7c-1.5,0-2.6,0.7-2.6,2 c0,2.6,4.1,1.7,4.1,3.3c0,0.5-0.6,1-1.4,1c-0.9,0-1.7-0.3-2.3-0.9l-0.6,0.9c0.8,0.7,1.9,1.1,2.9,1.1c1.5,0,2.7-0.9,2.7-2.1 C201.3,79.2,197.2,80,197.2,78.4z"></path><polygon class="st0" points="90,81.7 85.9,76.7 84.9,76.7 84.9,83.6 86,83.6 86,78.6 90.2,83.6 91.2,83.6 91.2,76.7 90,76.7 "></polygon><rect x="94.8" y="76.7" class="st0" width="1.2" height="6.9"></rect><rect x="135.4" y="76.7" class="st0" width="1.2" height="6.9"></rect><polygon class="st0" points="139.5,77.7 141.9,77.7 141.9,83.6 143.1,83.6 143.1,77.7 145.4,77.7 145.4,76.7 139.5,76.7 "></polygon><path class="st0" d="M123.5,79c0-1.5-1.1-2.3-2.8-2.3h-3.1v6.9h1.2v-2.2h2.1c0.7,0.6,1.2,1.4,1.6,2.2h1.4c-0.5-0.9-1.1-1.7-1.8-2.4 C122.9,80.9,123.5,80,123.5,79z M120.6,80.4h-1.8v-2.7h1.8c1,0,1.7,0.4,1.7,1.4C122.3,80,121.6,80.4,120.6,80.4L120.6,80.4z"></path><path class="st0" d="M151.1,79.9c-0.7-1-1.3-2.1-1.9-3.2h-1.3c0.8,1.5,1.7,3,2.7,4.4v2.5h1.2v-2.5c1-1.4,1.9-2.9,2.7-4.4H153 C152.4,77.8,151.8,78.9,151.1,79.9z"></path><path class="st0" d="M102.5,82.3c-0.9-1.8-1.7-3.7-2.2-5.6H99c0.7,2.4,1.7,4.7,2.9,6.9h1.2c1.2-2.2,2.1-4.5,2.9-6.9h-1.2 C104.1,78.6,103.4,80.5,102.5,82.3z"></path><path class="st0" d="M108.9,83.6h5.3v-1h-4.2v-2h3.3c0.2-0.3,0.4-0.6,0.5-1h-3.8v-2h4.2v-1h-5.3V83.6z"></path><path class="st0" d="M179.2,83.6h5.3v-1h-4.2v-2h3.3c0.2-0.3,0.4-0.6,0.5-1h-3.8v-2h4.2v-1h-5.3L179.2,83.6z"></path><path class="st0" d="M163.8,76.7h-3.1v6.9h1.2v-5.9h1.8c1,0,1.7,0.5,1.7,1.4c0,1-0.7,1.4-1.7,1.4h-1l-0.4,1h1.5 c1.7,0,2.9-0.9,2.9-2.5C166.6,77.5,165.5,76.7,163.8,76.7z"></path></svg>