<svg xmlns="http://www.w3.org/2000/svg" xmlns:xlink="http://www.w3.org/1999/xlink" id="Layer_1" x="0px" y="0px" viewBox="0 0 660 218.2" style="enable-background:new 0 0 660 218.2;" xml:space="preserve"><style type="text/css">	.st0{fill:#61A60E;}	.st1{fill:#76BC21;}	.st2{fill:#009D4F;}	.st3{fill:#006937;}	.st4{fill:#A2D45E;}	.st5{fill:#00B451;}	.st6{fill-rule:evenodd;clip-rule:evenodd;fill:#231F20;}	.st7{fill-rule:evenodd;clip-rule:evenodd;fill:#BBBDBF;}	.st8{fill:#BBBDBF;}</style><g>	<path class="st0" d="M64.5,100.6c0-0.1-5-12.9-24.6-28l-0.4-0.3l0.4-0.2c13-6.3,32.5-14.3,51.8-16.8h0.1l0.1,0.1  c0.2,0.1,16.6,11.5,33.6,23.5l0.6,0.4l-0.7,0.1c-18.8,2.1-44.6,7.5-60.5,21.4l-0.3,0.3L64.5,100.6z"></path>	<g>		<path class="st1" d="M40.3,72.6c-0.1-0.1-0.2-0.1-0.2-0.2C40.2,72.4,40.3,72.5,40.3,72.6L40.3,72.6z"></path>		<path class="st1" d="M144.8,77.5c-20.9-15.2-48.9-34.1-49.2-34.3l-0.1-0.1h-0.1c-27.2,4.5-49.8,15-64,22.9l0.1,0.2l-0.2,0.2   c3.1,2,5.9,4,8.4,6c0.1,0,0.2-0.1,0.3-0.1C54.3,65.5,73.2,58,91.8,55.6c0,0,16.4,11.3,33.6,23.5c0.1,0.1,0.2,0.2,0.3,0.2   c6-0.7,12.4-1.1,19-1.3v-0.3L144.8,77.5z"></path>	</g>	<path class="st2" d="M140.9,89.8c-4.7-3.4-9.6-6.9-15.1-10.8c-0.1,0-0.2,0-0.4,0c-20.9,2.3-45.3,8-60.6,21.4  c0,0-4.8-12.8-24.7-28.1c-0.1-0.1-0.3-0.2-0.3-0.2c-4.3,2.1-8.5,4.3-12.7,6.6l0.1,0.2L27,79.1c31.7,24.9,31.7,39.6,31.7,39.8v0.8  l0.5-0.7c18.1-23,58.8-28,81.4-28.9v-0.3L140.9,89.8z"></path>	<path class="st3" d="M59.1,119c0,0,0.4-14.7-31.8-40c-6.9,3.8-11.1,6.6-11.1,6.6c36.6,30.4,37.4,51.3,37.4,51.3  c22.7-35.7,103.7-34.7,103.7-34.7c-4.2-3.2-10.1-7.5-16.6-12.2C116.5,91,77.1,96.3,59.1,119L59.1,119z"></path>	<path class="st4" d="M95.5,43.4c0,0,28,18.9,49.2,34.3c11.9-0.4,20,0.2,20,0.2c-15.5-11.4-33-24.8-65.5-46.6  c-46.8,8.7-75.6,30-75.6,30c2.8,1.6,5.5,3.3,7.9,4.9C44.6,58.9,67.6,48,95.5,43.4L95.5,43.4z"></path>	<path class="st5" d="M40.1,72.4c-2.6-2-5.4-4-8.6-6.1c-7.4,4.2-11.7,7.2-11.7,7.2c2.7,1.9,5.1,3.8,7.4,5.6  C30.9,77,35.2,74.7,40.1,72.4L40.1,72.4z"></path>	<path class="st5" d="M144.7,77.7c-5.7,0.2-12.3,0.6-19.3,1.3c5.2,3.7,10.5,7.4,15.3,10.9c12-0.5,20.3,0.1,20.3,0.1  C156.8,86.7,151,82.3,144.7,77.7L144.7,77.7z"></path>	<path class="st6" d="M130.3,155c0.5-10.1-4.5-18.9-15.6-18.9c-10.7,0-15.8,9.4-15.6,19.1c-0.1,9.8,5.3,17.9,15.6,17.9  c8.4,0,13.9-4.5,15.3-12.8h-2.6c-1.2,6.5-6,10.5-12.7,10.5c-8.7,0-13.1-7.6-13-15.9L130.3,155L130.3,155z M101.8,152.7  c0.5-7,5.2-14.3,13-14.3c8.1,0,12.8,6.9,12.9,14.3H101.8z M133.9,136.9h2.6v7.6h0.1c1.8-5.3,7.2-8.4,12.7-8.4  c12.5,0,12.6,10,12.6,14.3v21.9h-2.6V150c0-3.7-0.4-11.6-10.1-11.6c-7.9,0-12.7,6.1-12.7,14.8v19.1h-2.6V136.9z M180,138.4  c8.7,0,12.9,7.2,12.9,15.1c0,8-4.3,15.2-12.9,15.2c-8.3,0-12.7-6.9-12.7-15.2C167.3,146,171.5,138.4,180,138.4z M192.9,136.9v7.4  h-0.1c-1.9-5.3-7.3-8.2-12.8-8.2c-10,0-15.3,8.1-15.3,17.4c0,9.8,4.9,17.5,15.3,17.5c6,0,10.3-2.8,12.8-8.1h0.1v8.1  c0,2.3-0.2,12.5-12.6,12.5c-5.8,0-10.7-2.5-11.3-8.7h-2.6c0.4,8.2,6.3,11,13.8,11c15.3,0.5,15.3-12.6,15.3-15.4v-33.5H192.9z   M203.3,144.8h0.2c1.4-4.6,7.2-8.3,13.6-8.1v2.6c-2.8-0.3-6.6,0.3-9.8,3.4c-2.6,2.7-3.7,4.9-4,10.2v19.3h-2.6v-35.4h2.6V144.8z   M215.6,154.6c0,10.1,5.9,18.5,16.3,18.5s16.2-8.5,16.2-18.5c0-10.1-5.9-18.5-16.2-18.5S215.6,144.6,215.6,154.6z M218.2,154.6  c0-8.5,4.7-16.3,13.6-16.3c8.9,0,13.6,7.8,13.6,16.3s-4.8,16.2-13.6,16.2C222.9,170.9,218.2,163.1,218.2,154.6z"></path>	<path class="st7" d="M277.5,170.9c-10,0-12.9-7.8-12.9-16.2s3.5-16.3,12.9-16.3c9.5,0,13.3,8.3,13.3,16.3  C290.8,163.4,286.7,170.9,277.5,170.9z M264.5,136.9h-2.6V185h2.6v-20h0.1c2.1,5.7,7,8.2,12.9,8.2c10.8,0,15.9-7.7,15.9-18.5  c0-10-5-18.6-15.9-18.6c-7.8,0-11.8,5.4-12.9,8.9h-0.1V136.9z"></path>	<path class="st7" d="M295.9,154.6c0,10.1,5.9,18.5,16.3,18.5s16.2-8.5,16.2-18.5c0-10.1-5.9-18.5-16.2-18.5  C301.8,136.1,295.9,144.6,295.9,154.6z M298.6,154.6c0-8.5,4.8-16.3,13.6-16.3c8.9,0,13.6,7.8,13.6,16.3s-4.8,16.2-13.6,16.2  C303.3,170.9,298.6,163.1,298.6,154.6z"></path>	<polygon class="st7" points="331.5,136.9 328.7,136.9 339.9,172.3 343.2,172.3 353,140.2 353.1,140.2 362.8,172.3 366.1,172.3   377.4,136.9 374.5,136.9 364.6,169.3 364.5,169.3 354.8,136.9 351.3,136.9 341.6,169.3 341.5,169.3  "></polygon>	<path class="st7" d="M408.8,155c0.5-10.1-4.5-18.9-15.6-18.9c-10.7,0-15.8,9.4-15.6,19.1c-0.1,9.8,5.3,17.9,15.6,17.9  c8.4,0,13.9-4.5,15.3-12.8h-2.6c-1.2,6.5-6,10.5-12.7,10.5c-8.7,0-13.1-7.6-13-15.9L408.8,155L408.8,155z M380.3,152.7  c0.5-7,5.2-14.3,13-14.3c8.1,0,12.8,6.9,12.9,14.3H380.3z"></path>	<path class="st7" d="M415.6,136.9H413v35.4h2.6V153c0.3-5.3,1.4-7.5,4-10.2c3.2-3.1,7-3.8,9.8-3.4v-2.6c-6.4-0.3-12.2,3.4-13.6,8.1  h-0.2L415.6,136.9L415.6,136.9z"></path>	<path class="st7" d="M444,138.4c8.7,0,12.9,7.2,12.9,15.1c0,8-4.3,15.2-12.9,15.2c-8.3,0-12.7-6.9-12.7-15.2  C431.3,146,435.4,138.4,444,138.4z M456.9,136.9v7.4h-0.1c-1.9-5.3-7.3-8.2-12.8-8.2c-10,0-15.3,8.1-15.3,17.4  c0,9.8,4.9,17.5,15.3,17.5c6,0,10.3-2.8,12.8-8.1h0.1v8.1c0,2.3-0.2,12.5-12.6,12.5c-5.8,0-10.7-2.5-11.3-8.7h-2.6  c0.4,8.2,6.3,11,13.8,11c15.3,0.5,15.3-12.6,15.3-15.4v-33.5H456.9z"></path>	<path class="st7" d="M494.9,155c0.5-10.1-4.5-18.9-15.6-18.9c-10.7,0-15.8,9.4-15.6,19.1c-0.1,9.8,5.3,17.9,15.6,17.9  c8.4,0,13.9-4.5,15.3-12.8H492c-1.2,6.5-6,10.5-12.7,10.5c-8.7,0-13.2-7.6-13-15.9L494.9,155L494.9,155z M466.3,152.7  c0.5-7,5.2-14.3,13-14.3c8.1,0,12.8,6.9,12.9,14.3H466.3z"></path>	<path class="st7" d="M499.1,172.3h2.6v-19.1c0-8.7,4.8-14.8,12.7-14.8c9.6,0,10.1,7.9,10.1,11.6v22.4h2.6v-21.9  c0-4.3-0.1-14.3-12.6-14.3c-5.5,0-10.9,3.1-12.7,8.4h-0.1V137h-2.6L499.1,172.3L499.1,172.3z"></path>	<g>		<path class="st8" d="M559.8,139.2h-7.5V163c-0.1,5.5,0.7,6.7,4.6,6.7c0.7,0,1.5-0.1,2.9-0.3v2.5c-1.5,0.2-2.1,0.2-3.4,0.2   c-5.9,0-7-1.6-7-10.1v-22.8H543v-2.3h6.4v-11h2.8v11h7.5v2.3H559.8z"></path>		<path class="st8" d="M567.5,140.7l-0.1,1.9v2.3c1-2.5,1.8-3.9,3.2-5.3c2.4-2.3,5.6-3.7,9.3-3.7c4.6,0,8.3,1.8,10.6,5.1   c1.5,2.2,2.1,4.5,2.1,8.4V172h-2.8v-22.1c-0.1-4.5-0.8-6.8-2.9-8.9c-1.9-1.8-4.5-2.7-7.4-2.7c-4.6,0-8.4,2.3-10.3,6.6   c-1.2,2.5-1.6,5-1.6,9.2V172h-2.8v-48.8h2.8L567.5,140.7L567.5,140.7z"></path>		<path class="st8" d="M630.5,171.8c-1,0.2-1.8,0.4-2.8,0.4c-3.2,0-4.1-1.3-4.1-6.2v-1.4c-2.9,5.8-7.2,8.4-13.7,8.4   c-7.3,0-11.7-3.6-11.7-9.8c0-6.5,4.5-10,13.5-10.8l6.7-0.6c3.9-0.4,5-1.3,5-4.7c0-6.1-3.2-8.9-10-8.9c-6.6,0-10,3.1-10.6,9.5h-2.6   c0.4-7.6,5.3-11.8,13.6-11.8c4.5,0,8.4,1.5,10.4,3.8c1.6,1.9,2,3.4,2,8.3v1.2v11.3c0,2.2,0,3.9,0,5.1v0.4c0,3,0.5,3.8,2.5,3.8   c0.7,0,1-0.1,1.8-0.3L630.5,171.8L630.5,171.8z M615.7,154.4c-6.3,0.6-8,1-10.3,2c-2.6,1.2-4.1,3.6-4.1,6.5c0,4.7,3.5,7.7,9,7.7   c7.6,0,13.2-5.2,13.2-12.3V152C622.2,153.4,620.6,153.9,615.7,154.4z"></path>		<path class="st8" d="M650.8,139.4c-0.4,0-0.8,0-1,0c-4,0-7.4,1.7-9.7,4.8s-2.9,5.8-2.9,12.7V172h-2.8v-35.1h2.7v9.2   c1.5-3.8,2.9-5.7,5.4-7.4c2.3-1.5,4.7-2.1,8.1-2.1h0.2V139.4z"></path>	</g></g></svg>