<svg xmlns="http://www.w3.org/2000/svg" xmlns:xlink="http://www.w3.org/1999/xlink" id="Layer_1" x="0px" y="0px" viewBox="0 0 868 594.6" style="enable-background:new 0 0 868 594.6;" xml:space="preserve"><style type="text/css">	.st0{fill:#F50082;}	.st1{fill:#00005A;}</style><path class="st0" d="M198,260.7c-7,0-11-2.7-11.9-7.9v-0.2h-12.3v0.2c1.6,11.1,10.7,17.4,24.5,17.4c16.2,0,27-10.9,27-27.2v-0.8 c0-16.3-10.9-27.6-26.5-27.6c-6.5-0.2-12.7,2-17.6,6.3c-5.1,4.8-7.6,11.7-7.6,20.6v3.8h38.8C211.9,255.3,206.8,260.7,198,260.7  M186.1,236.8c0.6-8.5,4.9-12.8,12.6-12.8c7.1,0,12.1,4.8,13.3,12.8H186.1z"></path><path class="st0" d="M227.4,271c-6.5-0.2-12.7,2-17.6,6.3c-5.1,4.8-7.6,11.7-7.6,20.6v3.7h38.8c-0.5,9.9-5.6,15.3-14.4,15.3 c-7,0-11-2.7-12-7.9v-0.2h-12.2v0.2c1.8,11.1,10.7,17.5,24.6,17.5c16.2,0,27-10.9,27-27.2v-0.8C253.9,282.4,243,271.1,227.4,271  M214.7,293.1c0.6-8.5,4.9-12.8,12.6-12.8c7.1,0,12.1,4.8,13.3,12.8H214.7z"></path><path class="st0" d="M198.8,328c-6.5-0.2-12.7,2-17.6,6.3c-5.1,4.8-7.6,11.7-7.6,20.6v3.7h38.8c-0.5,9.9-5.6,15.3-14.4,15.3 c-7,0-11-2.7-11.9-7.9v-0.2h-12.3v0.2c1.6,11.1,10.7,17.4,24.5,17.4c16.2,0,27-10.9,27-27.2v-0.8C225.3,339.3,214.4,328,198.8,328  M186.1,350.1c0.6-8.5,4.9-12.8,12.6-12.8c7.1,0,12.1,4.8,13.3,12.8H186.1z"></path><path class="st1" d="M143.6,270.3c13.9,0,22.8-6.4,24.5-17.4v-0.2h-12.2v0.2c-0.9,5.3-4.9,7.9-12,7.9c-8.8,0-13.9-5.4-14.4-15.3 h38.8v-3.8c0-8.9-2.6-15.9-7.6-20.6c-4.8-4.3-11.1-6.5-17.6-6.3c-15.6,0-26.5,11.4-26.5,27.6v0.8 C116.6,259.4,127.4,270.3,143.6,270.3 M129.8,236.8c1.2-8,6.2-12.8,13.3-12.8c7.8,0,12,4.3,12.7,12.8L129.8,236.8z"></path><path class="st1" d="M196.9,298c0-8.9-2.6-15.9-7.6-20.6c-4.8-4.3-11.1-6.5-17.6-6.3c-15.6,0-26.5,11.4-26.5,27.6v0.8 c0,16.3,10.9,27.2,27.1,27.2c13.9,0,22.8-6.4,24.5-17.4v-0.2h-12.3v0.2c-0.9,5.3-4.9,7.9-12,7.9c-8.8,0-13.9-5.4-14.4-15.3h38.8 L196.9,298z M158.3,293.1c1.3-8,6.2-12.8,13.3-12.8c7.8,0,12,4.3,12.6,12.8H158.3z"></path><path class="st1" d="M143.1,328c-15.6,0-26.5,11.4-26.5,27.6v0.8c0,16.3,10.9,27.2,27.1,27.2c13.9,0,22.8-6.4,24.5-17.4V366h-12.2 v0.2c-0.9,5.3-4.9,7.9-12,7.9c-8.8,0-13.9-5.4-14.4-15.3h38.8V355c0-8.9-2.6-15.9-7.6-20.6C155.9,330.1,149.6,327.8,143.1,328  M129.8,350.1c1.3-8,6.2-12.8,13.3-12.8c7.8,0,12,4.3,12.7,12.8H129.8z"></path><path class="st1" d="M139.6,309.1v-0.2h-12.2v0.2c-0.9,5.3-4.9,7.9-12,7.9c-8.8,0-13.9-5.4-14.4-15.3h38.8V298 c0-8.9-2.6-15.9-7.6-20.6c-4.8-4.3-11.1-6.5-17.6-6.3C98.9,271,88,282.4,88,298.6v0.8c0,16.2,10.9,27.2,27.1,27.2 C128.9,326.6,137.8,320.3,139.6,309.1 M99.9,293.1c1.3-8,6.2-12.8,13.3-12.8c7.8,0,12,4.3,12.7,12.8H99.9z"></path><path class="st1" d="M377.6,262.1c-8.1-7.6-19.3-11.6-32.3-11.6c-28.7,0-48.7,20.8-48.7,50.6v1.5c0,29.8,19.9,49.8,49.7,49.8 c25.5,0,41.9-11.7,45-32l0.1-0.9h-23.1l-0.1,0.6c-1.6,9.4-8.9,14.1-21.4,14.1c-15.7,0-24.8-9.6-25.8-27.1h70.6V300 C391.6,283.6,386.9,270.9,377.6,262.1 M321.5,290.8c2.4-14.3,11.1-22.5,23.9-22.5c13.8,0,21.4,7.6,22.6,22.5H321.5z"></path><path class="st1" d="M443.4,290.5c-15-2.5-19.3-5.1-19.3-11.6s5.6-10.7,14.6-10.7c9.8,0,14.6,3.7,16.4,12.3l0.1,0.6h22.1l-0.1-0.8 c-2.2-19.8-15.2-29.8-38.6-29.8c-9-0.2-17.8,2.4-25.3,7.4c-7.4,5-11.8,13.4-11.6,22.4c0,18,9.3,25.9,35.5,30.1 c15.2,2.6,20,5.6,20,12.5c0,7.9-5.3,11.6-16.6,11.6c-11.8,0-17.3-4.4-18.5-14.8V319h-22.6v0.8c0.9,20.8,15.9,32.6,41.2,32.6 s39.3-11.5,39.3-31.6C480.2,300.2,466.7,294.1,443.4,290.5"></path><path class="st1" d="M532.1,290.5c-15-2.5-19.3-5.1-19.3-11.6s5.6-10.7,14.6-10.7c9.8,0,14.7,3.7,16.4,12.3l0.1,0.6H566l-0.1-0.8 c-2.2-19.8-15.2-29.8-38.6-29.8c-9-0.2-17.8,2.4-25.3,7.4c-7.4,5-11.8,13.4-11.6,22.4c0,18,9.3,25.9,35.5,30.1 c15.2,2.6,20,5.6,20,12.5c0,7.9-5.3,11.6-16.6,11.6c-11.8,0-17.3-4.4-18.5-14.8V319h-22.5v0.8c0.9,20.8,15.9,32.6,41.2,32.6 c25.2,0,39.3-11.5,39.3-31.6C568.8,300.2,555.3,294.1,532.1,290.5"></path><path class="st1" d="M593.4,211c-7.6-0.2-13.8,5.8-14,13.4c0,0.1,0,0.2,0,0.3c0.7,7.7,7.5,13.5,15.2,12.8c6.8-0.6,12.2-6,12.8-12.8 c0-7.6-6.2-13.7-13.7-13.7c0,0,0,0,0,0H593.4"></path><polygon class="st1" points="582.5,252.5 581.8,252.5 581.8,253.3 581.8,349.8 581.8,350.5 582.5,350.5 604.8,350.5 605.6,350.5  605.6,349.8 605.6,253.3 605.6,252.5 604.8,252.5 "></polygon><path class="st1" d="M663.5,332.4c-6.9,0-10.3-3.9-10.3-11.6v-50h21.2v-18.3h-21.2v-21.2h-23.8v21.2h-12.4v18.3h12.4v52.1 c0,18.9,10.6,29.3,29.9,29.3c5.2,0.1,10.4-0.7,15.4-2.4l0.5-0.2v-19.4l-1,0.4C670.8,332,667.2,332.6,663.5,332.4"></path><polygon class="st1" points="778.9,252.5 757.1,252.5 756.6,252.5 756.4,253 733.5,313.4 708.5,253 708.3,252.5 707.8,252.5  683.7,252.5 682.5,252.5 683,253.6 721,340 703.6,382.5 703.2,383.6 704.3,383.6 726.3,383.6 726.8,383.6 727,383.1 779.6,253.6  780,252.5 "></polygon></svg>