<svg xmlns="http://www.w3.org/2000/svg" xmlns:xlink="http://www.w3.org/1999/xlink" id="katman_1" x="0px" y="0px" viewBox="0 0 420 294.2" style="enable-background:new 0 0 420 294.2;" xml:space="preserve"><style type="text/css">	.st0{fill:#4DC7E4;}	.st1{clip-path:url(#SVGID_2_);fill:none;stroke:#FFFFFF;stroke-width:0.788;stroke-miterlimit:3.9999;}	.st2{fill:#FFFFFF;}	.st3{fill:#231F20;}	.st4{clip-path:url(#SVGID_4_);fill:#231F20;}	.st5{clip-path:url(#SVGID_6_);fill:#231F20;}</style><path class="st0" d="M264.3,41.8c11.2,0,18.3,9,18.4,18.4l0,123.9c-0.1,10-8,18.4-18.5,18.4H148.4c-10.8,0-18.4-8.9-18.4-18.5 l0-123.9c0-10.3,8.7-18.5,18.4-18.4L264.3,41.8"></path><g>	<defs>		<rect id="SVGID_1_" x="90" y="40.2" width="240" height="213.8"></rect>	</defs>	<clipPath id="SVGID_2_">		<use xlink:href="#SVGID_1_" style="overflow:visible;"></use>	</clipPath>	<path class="st1" d="M264.3,41.8c11.2,0,18.3,9,18.4,18.4l0,123.9c-0.1,10-8,18.4-18.5,18.4H148.4c-10.8,0-18.4-8.9-18.4-18.5  l0-123.9c0-10.3,8.7-18.5,18.4-18.4L264.3,41.8L264.3,41.8z"></path></g><path class="st2" d="M217.5,100l42.9-20.2c0.2-0.1,0.3,0.2,0.4,0.2L231.1,117l43.3,20.9c0.2,0.1,0.4,0.3,0.1,0.5l-47.6,0l10.9,47.3 l-0.3,0.3l-31.1-38h-0.4l-30.8,38.1c-0.2,0.1-0.3,0.1-0.4,0l10.7-47.4l-47.5-0.1c-0.2-0.1-0.2-0.3-0.2-0.4l43.2-20.8l0.3-0.3 l-29.7-37c-0.1-0.2,0.1-0.3,0.2-0.5l42.9,20.2l11.2-46h0.3L217.5,100"></path><polyline class="st3" points="90,254 90,220.2 99,220.2 110.4,245.3 121.6,220.2 130.2,220.2 130.2,254 122.8,254 122.8,234.7  114.2,254 106.3,254 97.7,234.8 97.7,254 90,254 "></polyline><path class="st3" d="M142.3,254h-8.7l15-33.8h10.7l15.1,33.8h-8.6l-3-6.8l-17.6,0.1L142.3,254 M160,240.9l-6.1-13.9l-6,13.9H160z"></path><polyline class="st3" points="177.9,254 177.9,220.2 210.2,220.2 210.2,227 185.7,227 185.7,233.7 206.7,233.7 206.7,240.4  185.7,240.4 185.7,247.2 210.2,247.2 210.2,254 177.9,254 "></polyline><g>	<defs>		<rect id="SVGID_3_" x="90" y="40.2" width="240" height="213.8"></rect>	</defs>	<clipPath id="SVGID_4_">		<use xlink:href="#SVGID_3_" style="overflow:visible;"></use>	</clipPath>	<path class="st4" d="M216.4,254v-33.8h27.6c0,0,1.8-0.2,3.7,1.6c1.7,1.6,1.4,4,1.4,4v11.3c0,0,0.3,2.1-1.7,3.9  c-1.9,1.7-4.7,1.3-4.7,1.3l6.4,11.5h-8.4l-6.4-11.5h-10V254H216.4 M224.3,235.7h16.9V227h-16.9V235.7z"></path></g><g>	<defs>		<rect id="SVGID_5_" x="90" y="40.2" width="240" height="213.8"></rect>	</defs>	<clipPath id="SVGID_6_">		<use xlink:href="#SVGID_5_" style="overflow:visible;"></use>	</clipPath>	<path class="st5" d="M263.3,254h-2.7c0,0-2.3,0-3.7-1.5c-1.5-1.6-1.5-3.5-1.5-3.5v-4.4h7.8v2.6H280v-6.8h-19.1c0,0-2.4,0.2-3.8-1.3  c-1.6-1.7-1.4-3.6-1.4-3.6v-10.1c0,0,0-1.7,1.1-3.2c1.6-2.2,4.2-2,4.2-2l21.9,0c0,0,1.8-0.1,3.5,1.6c1.9,1.8,1.5,3.8,1.5,3.8v4H280  V227h-16.7v6.8h19.1c0,0,2.2-0.2,3.8,1.6c1.6,1.8,1.6,3.8,1.6,3.8v9.5c0,0,0.3,1.9-1.2,3.6c-1.7,1.9-4,1.7-4,1.7L263.3,254"></path></g><polyline class="st3" points="295.3,254 295.3,220.2 303.3,220.2 303.3,233.7 318.5,220.2 329.4,220.2 311.2,235.9 330,254  318.8,254 303.3,238.6 303.3,254 295.3,254 "></polyline></svg>