<svg xmlns="http://www.w3.org/2000/svg" xmlns:xlink="http://www.w3.org/1999/xlink" id="Layer_1" x="0px" y="0px" viewBox="0 0 663.3 218.8" style="enable-background:new 0 0 663.3 218.8;" xml:space="preserve"><style type="text/css">	.st0{clip-path:url(#SVGID_2_);}	.st1{clip-path:url(#SVGID_11_);}	.st2{clip-path:url(#SVGID_12_);}	.st3{clip-path:url(#SVGID_13_);}	.st4{clip-path:url(#SVGID_14_);}	.st5{clip-path:url(#SVGID_15_);}	.st6{clip-path:url(#SVGID_16_);}	.st7{clip-path:url(#SVGID_17_);}	.st8{clip-path:url(#SVGID_18_);fill:#6CB33F;}	.st9{clip-path:url(#SVGID_18_);fill:#7AC143;}	.st10{clip-path:url(#SVGID_18_);fill:#00B274;}	.st11{clip-path:url(#SVGID_18_);fill:#00703C;}	.st12{clip-path:url(#SVGID_18_);fill:#B4D88B;}	.st13{clip-path:url(#SVGID_18_);fill:#65C294;}	.st14{fill:#808285;}</style><g>	<g>		<g id="Artwork_1_1_">			<defs>				<rect id="SVGID_1_" width="210.4" height="149.6"></rect>			</defs>			<clipPath id="SVGID_2_">				<use xlink:href="#SVGID_1_" style="overflow:visible;"></use>			</clipPath>			<g class="st0">				<g>					<defs>						<rect id="SVGID_3_" width="210.4" height="149.6"></rect>					</defs>					<defs>						<rect id="SVGID_4_" width="210.4" height="149.6"></rect>					</defs>					<defs>						<rect id="SVGID_5_" width="210.4" height="149.6"></rect>					</defs>					<defs>						<rect id="SVGID_6_" width="210.4" height="149.6"></rect>					</defs>					<defs>						<rect id="SVGID_7_" width="210.4" height="149.6"></rect>					</defs>					<defs>						<rect id="SVGID_8_" width="210.4" height="149.6"></rect>					</defs>					<defs>						<rect id="SVGID_9_" width="210.4" height="149.6"></rect>					</defs>					<defs>						<rect id="SVGID_10_" width="210.4" height="149.6"></rect>					</defs>					<clipPath id="SVGID_11_">						<use xlink:href="#SVGID_3_" style="overflow:visible;"></use>					</clipPath>					<clipPath id="SVGID_12_" class="st1">						<use xlink:href="#SVGID_4_" style="overflow:visible;"></use>					</clipPath>					<clipPath id="SVGID_13_" class="st2">						<use xlink:href="#SVGID_5_" style="overflow:visible;"></use>					</clipPath>					<clipPath id="SVGID_14_" class="st3">						<use xlink:href="#SVGID_6_" style="overflow:visible;"></use>					</clipPath>					<clipPath id="SVGID_15_" class="st4">						<use xlink:href="#SVGID_7_" style="overflow:visible;"></use>					</clipPath>					<clipPath id="SVGID_16_" class="st5">						<use xlink:href="#SVGID_8_" style="overflow:visible;"></use>					</clipPath>					<clipPath id="SVGID_17_" class="st6">						<use xlink:href="#SVGID_9_" style="overflow:visible;"></use>					</clipPath>					<clipPath id="SVGID_18_" class="st7">						<use xlink:href="#SVGID_10_" style="overflow:visible;"></use>					</clipPath>					<path class="st8" d="M68.5,98.2c-0.1-0.2-7.1-18.3-34.8-39.6l-0.5-0.4l0.6-0.3C52.1,48.9,79.8,37.6,107,34l0.1,0l0.1,0.1      c0.2,0.2,23.6,16.2,47.6,33.2l0.9,0.6l-1,0.1C128,71,91.5,78.6,69.1,98.3l-0.4,0.4L68.5,98.2z"></path>					<path class="st9" d="M34.3,58.5c-0.1-0.1-0.2-0.2-0.4-0.3C34,58.3,34.1,58.4,34.3,58.5"></path>					<path class="st9" d="M182.2,65.4c-29.6-21.5-69.3-48.3-69.6-48.5l-0.1-0.1l-0.2,0c-38.6,6.3-70.6,21.1-90.7,32.4l0.2,0.4      l-0.2,0.3c4.3,2.9,8.4,5.7,11.9,8.5c0.1-0.1,0.3-0.1,0.4-0.2c20.2-9.8,46.9-20.4,73.2-23.8c0,0,23.3,16,47.6,33.2      c0.2,0.1,0.3,0.2,0.5,0.4c8.6-0.9,17.6-1.6,26.8-1.9l0-0.4L182.2,65.4z"></path>					<path class="st10" d="M176.6,82.8c-6.6-4.8-13.5-9.7-21.3-15.2c-0.2,0-0.3,0-0.6,0.1C125.1,70.9,90.5,79,68.8,98      c0,0-6.8-18.1-34.9-39.8c-0.1-0.1-0.4-0.3-0.4-0.3c-6.1,3-12,6-18,9.4l0.2,0.4l-0.3,0.3c44.9,35.3,44.9,56.1,44.9,56.3l0,1.2      l0.7-0.9c25.7-32.6,83.2-39.7,115.3-41l0-0.4L176.6,82.8z"></path>					<path class="st11" d="M60.8,124.3c0,0,0.6-20.8-45.1-56.6C5.9,73.1,0,77,0,77c51.9,43.1,53,72.7,53,72.7      c32.2-50.6,146.8-49.2,146.8-49.2c-5.9-4.6-14.2-10.7-23.5-17.3C142.1,84.5,86.3,92,60.8,124.3"></path>					<path class="st12" d="M112.4,17.2c0,0,39.7,26.8,69.6,48.5c16.9-0.5,28.4,0.3,28.4,0.3c-21.9-16.2-46.7-35.1-92.7-66      C51.4,12.3,10.5,42.6,10.5,42.6c4,2.3,7.7,4.7,11.2,7C40.3,39.1,72.9,23.7,112.4,17.2"></path>					<path class="st13" d="M33.9,58.2c-3.7-2.8-7.7-5.7-12.1-8.6C11.2,55.5,5.3,59.8,5.3,59.8c3.8,2.7,7.2,5.3,10.5,7.9      C20.8,64.8,27,61.5,33.9,58.2"></path>					<path class="st13" d="M182,65.7c-8.1,0.3-17.5,0.8-27.3,1.9c7.4,5.2,14.8,10.5,21.7,15.5c17-0.7,28.7,0.1,28.7,0.1      C199.2,78.4,191,72.3,182,65.7"></path>				</g>			</g>		</g>		<g>			<path d="M120.5,172.5c0.8-9.8,7.2-20,18.2-20c11.4,0,17.9,9.6,18.1,20H120.5L120.5,172.5z M160.5,175.7    c0.7-14.1-6.3-26.4-21.7-26.4c-14.9,0-22.1,13.2-21.9,26.8c-0.2,13.7,7.4,25,21.9,25c11.7,0,19.4-6.3,21.4-17.9h-3.7    c-1.7,9.1-8.4,14.7-17.7,14.7c-12.2,0-18.4-10.6-18.2-22.2L160.5,175.7L160.5,175.7z"></path>			<path d="M165.4,199.9h3.6v-26.8c0-12.1,6.8-20.7,17.8-20.7c13.5,0,14,11,14,16.1v31.3h3.7v-30.6c0-6.1-0.2-20-17.6-20    c-7.7,0-15.2,4.3-17.7,11.7h-0.2v-10.6h-3.6V199.9L165.4,199.9z"></path>			<path d="M248.1,150.4v10.3h-0.2c-2.7-7.4-10.2-11.5-17.9-11.5c-14,0-21.4,11.3-21.4,24.4c0,13.7,6.8,24.4,21.4,24.4    c8.4,0,14.5-3.9,17.9-11.3h0.2v11.4c0,3.3-0.3,17.4-17.6,17.4c-8.1,0-15-3.5-15.8-12.3H211c0.6,11.5,8.8,15.4,19.4,15.4    c21.4,0.7,21.4-17.6,21.4-21.5v-46.9L248.1,150.4L248.1,150.4z M230,152.5c12.1,0,18,10.1,18,21.2c0,11.1-6,21.3-18,21.3    c-11.6,0-17.7-9.6-17.7-21.3C212.3,163.1,218.1,152.5,230,152.5L230,152.5z"></path>			<path d="M262.6,150.4h-3.7v49.5h3.7v-27.1c0.4-7.4,1.9-10.5,5.6-14.2c4.4-4.3,9.8-5.3,13.7-4.8v-3.7c-9-0.4-17,4.8-19,11.3h-0.3    V150.4L262.6,150.4z"></path>			<path d="M282.5,175.2c0-11.8,6.6-22.7,19.1-22.7c12.4,0,19.1,10.9,19.1,22.7c0,11.9-6.6,22.7-19.1,22.7S282.5,187,282.5,175.2    L282.5,175.2z M278.8,175.2c0,14.1,8.2,25.9,22.7,25.9c14.5,0,22.7-11.9,22.7-25.9c0-14-8.2-25.9-22.7-25.9    C287,149.3,278.8,161.1,278.8,175.2L278.8,175.2z"></path>			<g>				<g>					<path class="st14" d="M333.9,154.4v-3.1h8.7v-10.1c0-6.8,4.9-9.7,10.7-9.7c1.4,0,2.8,0.2,4.3,0.5v3.1c-1.4-0.3-2.8-0.5-4.3-0.5      c-4,0-7.1,1.4-7.1,6.8v9.8h10.2v3.1h-10.2v45.7h-3.6v-45.7H333.9z"></path>					<path class="st14" d="M363.5,176.2c-0.2,11.5,5.9,21.9,18,21.9c9.2,0,15.8-5.5,17.5-14.5h3.6c-1.9,11.4-9.5,17.7-21.1,17.7      c-14.3,0-21.8-11.2-21.6-24.7c-0.2-13.4,6.8-26.4,21.6-26.4c15.3,0,22.1,12.1,21.5,26H363.5z M399.3,173      c-0.2-10.3-6.7-19.8-17.8-19.8c-10.8,0-17.2,10.1-18,19.8H399.3z"></path>					<path class="st14" d="M415,162.1h0.3c1.9-6.4,9.9-11.5,18.7-11.1v3.6c-3.8-0.5-9.1,0.5-13.5,4.8c-3.6,3.7-5.1,6.7-5.5,14.1      v26.7h-3.6v-48.8h3.6L415,162.1L415,162.1z"></path>					<path class="st14" d="M455.7,154.4h-10.6v34.1c0,7.9,3.7,8.6,10.5,8.5v3.1c-7.4,0.5-14.5-0.6-14.2-11.6v-34.1h-9v-3.1h9v-15.2      h3.6v15.2h10.6L455.7,154.4L455.7,154.4z"></path>					<path class="st14" d="M463.2,142v-9.8h3.6v9.8H463.2z M463.2,200.1v-48.8h3.6v48.8H463.2z"></path>					<path class="st14" d="M482.8,132.3v67.8h-3.6v-67.8H482.8z"></path>					<path class="st14" d="M495.1,142v-9.8h3.6v9.8H495.1z M495.1,200.1v-48.8h3.6v48.8H495.1z"></path>					<path class="st14" d="M544.5,197v3.1h-38.8v-3.4l32.8-42.3h-30.2v-3.1H543v3.4L510.1,197H544.5z"></path>					<path class="st14" d="M552.1,176.2c-0.2,11.5,5.9,21.9,18,21.9c9.2,0,15.8-5.5,17.5-14.5h3.6c-1.9,11.4-9.5,17.7-21.1,17.7      c-14.3,0-21.8-11.2-21.6-24.7c-0.2-13.4,6.8-26.4,21.6-26.4c15.3,0,22.1,12.1,21.5,26H552.1z M587.9,173      c-0.2-10.3-6.7-19.8-17.8-19.8c-10.8,0-17.2,10.1-18,19.8H587.9z"></path>					<path class="st14" d="M603.6,162.1h0.3c1.9-6.4,9.9-11.5,18.7-11.1v3.6c-3.8-0.5-9.1,0.5-13.5,4.8c-3.6,3.7-5.1,6.7-5.5,14.1      v26.7H600v-48.8h3.6V162.1z"></path>					<path class="st14" d="M628.1,183.8c0.6,9,7.3,14.3,16.2,14.3c6.4,0,15.5-1.9,15.5-10.4c0-8.3-8.4-9.5-16.7-11.2      c-8.4-1.7-16.8-3.9-16.8-13.9c0-9.7,9.4-12.5,17.7-12.5c10.3,0,18.1,4.5,18.1,15.6h-3.6c-0.1-8.8-6.3-12.4-14.4-12.4      c-6.7,0-14.1,2.5-14.1,9.4c0,7.8,8.4,9,16.2,10.7c9.7,1.8,17.3,4.1,17.3,14.3c0,10.5-10.5,13.5-19.1,13.5      c-11.1,0-19.5-6-19.8-17.4L628.1,183.8L628.1,183.8z"></path>				</g>			</g>		</g>	</g></g></svg>