<svg xmlns="http://www.w3.org/2000/svg" xmlns:xlink="http://www.w3.org/1999/xlink" id="layer" x="0px" y="0px" viewBox="-153 -46 652 652" style="enable-background:new -153 -46 652 652;" xml:space="preserve"><style type="text/css">	.st0{fill-rule:evenodd;clip-rule:evenodd;fill:#E91C24;}	.st1{fill-rule:evenodd;clip-rule:evenodd;fill:#8DC545;}	.st2{fill-rule:evenodd;clip-rule:evenodd;fill:#0A4A70;}	.st3{fill-rule:evenodd;clip-rule:evenodd;fill:#EC1D24;}	.st4{fill-rule:evenodd;clip-rule:evenodd;fill:#FFFDFD;}</style><path id="XMLID_14_" class="st0" d="M31.4,262.5c-8.3,3-13.2,7.4-13.7,16.5c-0.4,6.5,1.3,9.6,5.4,14.2c1.8,1.8,5,3.6,7.4,4.2 c5.4,1.3,11.5,1.4,16.5-0.5c5.4-2.1,10.8-7.5,11.2-13.5c0.8-11.9-4.1-18.6-15.8-21.1C37.8,261.3,34,262,31.4,262.5 M28.4,273.7 c1.1-2.4,3.7-6,5.7-7.4c0,0,0.6-0.3,0.6-0.3c4.6-1.5,9.6,0.7,11.8,5.1c2,4.1,2.8,7.4,2,12.2c-0.9,5.8-3.3,8.8-8.4,11.2 c-7.8,1.1-11.8-4.7-12.9-11.1l-0.3-4.5c0-0.2,0.1-0.9,0.1-1 M170.4,263.6c0.9,0.3,0.4,2.3,0.4,3.1c-3.5,0.2-7.6,0.1-11.2,0.1 c-1.9,0-3.6-0.1-5.5-0.1c-2.8-0.1-4.3,1.2-4.4,3.9l0.1,5.2c0.4,1.4,0.5,1.5,1.7,1.6c6.3,0,13.1-0.2,19.1,0.1c0.3,0.9,0.2,2.6-0.2,3 c-3.7,0.3-10.3,0.1-14.6,0.1c-1.6,0-3-0.1-4.6,0.1c-2.3,0.5-1.2,3.8-1.2,6.4c0,1.6-0.3,3.8,0.7,4.8c2,1.9,17.6-0.3,20.1,1.1 c0.3,0.8,0.4,3-0.1,3.6c-1.5,0.4-24.5-0.1-28.3,0.1c-0.4-0.2-1.3,0-1.5-1.5l-0.2-1.4c-0.2-3.9-0.3-7.6-0.3-11.7 c0-3-0.3-15.3,0.9-17.2c0.4-0.6,0.7-0.9,1.2-1.4L170.4,263.6z M95.1,263.6l0.1,3.1c-5.7,0.3-11.4-0.6-11.3,0.9l-0.1,29.1l-9.5,0 l0-28.7c-0.6-1.1-0.2-1.1-1.7-1.2l-11.9,0l-0.1-3.2L95.1,263.6z M134.1,263.6l0.1,3.1c-5.7,0.3-11.4-0.6-11.3,0.9l0,29.1l-9.6,0 l0-28.7c-0.6-1.1-0.2-1.1-1.7-1.2l-11.9,0l0.1-3.2L134.1,263.6z M-3.6,263.2c0.5,0.9-0.6,28,0.5,29.3c0.3,0.2,0.7,0.4,1,0.5 c1.8,0.6,14.9,0.2,17.5,0.3l-0.1,3.4c-5.2,0.2-10.4,0.1-15.6,0.1c-5.6,0-11.4,1.1-12.6-2.8c-0.7-2.2,0.1-25.4-0.2-30.6L-3.6,263.2z"></path><path id="XMLID_4_" class="st1" d="M429.1,255.1c0.8,0,5.3,0.2,5.5-0.3c1.3-3.8,4.7-9.5,9.3-10.8l24-0.1c0.2,0.3-0.1,33.8-0.4,37.6 c-0.1,0.8-0.3,1.8-0.4,2.7c-1.3,6-5,7.6-10.2,9.3c-0.4,1.5-0.6,4.6,0.2,6c6.7-0.2,11.3-4.1,14.5-9.5c2.8-4.7,2.1-10.3,2.1-16.2 l0-27.6c-0.1-7.8,0.9-8.5-2.4-8.7c-0.7,0-1.6,0-2.3,0l-24.6,0.1C436.7,238.7,429.1,247.3,429.1,255.1"></path><path id="XMLID_5_" class="st2" d="M298.9,299.5l-6.1,0.1l3.4-39l4.2,0c1.8,2.3,12.3,25.6,14,27.2l6.7-12.4l7.3-14.7l4.2,0l0.7,9.1 l2.5,29.9l-6.4,0l-2.2-22.4l-11.5,22.3l-2.8,0l-11.6-22.3L298.9,299.5z M232.4,299.5l0-15.8l18.3,0l0,15.8l6.1,0v-38.9h-6.1l0,16.4 l-18.2,0.1l0-16.4l-6.1,0l0,38.9H232.4z M424.4,299.5l-6.7,0l-2-4.7c-0.6-1.5-1.3-3.6-2.1-4.9l-12.8,0l-4,9.5l-6.8,0l15.2-38.1 c0.7-1.5,1.2-1.1,3.1-1.1 M402.9,283.6l8.7,0.1l-4.6-9.9L402.9,283.6z M358.8,290.9c5,8.2,18.3,12.6,27.4,7.3c0.4-0.4,1.6-6,1.6-6.8 c-0.4,0-4.5,1.5-4.5,1.5c-1.9,1.4-10.7,1.7-14.5-1.2c-9.5-5.2-8.1-21,3-24.5c7.2-2.2,10.5-0.7,14.4,1.2l1.2-5.8 c-0.9-0.8-6.3-3.5-12.2-3c-1.7,0.2-3.1,0.5-4.6,0.9C357.8,263.7,351.9,279.7,358.8,290.9 M189.2,290.7c5,8.2,18.4,12.6,27.4,7.3 c0.4-0.4,1.6-6,1.6-6.8c-0.4,0-4.5,1.5-4.5,1.5c-1.9,1.4-10.7,1.7-14.5-1.2c-9.5-5.2-8.1-21,3-24.5c7.2-2.2,10.5-0.7,14.4,1.2 l1.2-5.8c-0.9-0.8-6.3-3.5-12.2-3c-1.7,0.2-3.1,0.5-4.6,0.9C188.3,263.5,182.4,279.5,189.2,290.7 M287.6,292.9l-16.3,0l0-9.3l11.9,0 l0.1-6.6l-12,0l0-10.2l14.3,0v-6.2l-20.6,0l0.1,38.9h22.5L287.6,292.9z M428.5,299.5h22.8v-6.7l-15.9,0l0-32.3l-6.8,0L428.5,299.5z  M349.6,260.6h-6.8v38.9h6.8V260.6z"></path><path id="XMLID_24_" class="st3" d="M-126.1,283.4c0.6,5.4,2.5,9.6,5.6,13.7c0.2,0.3,0.4,0.5,0.6,0.8c0.8,1.1,11.3,11.4,13.1,13.3 c2,2,3.9,3.9,5.9,5.9c1,1,2.1,2,3,3c1.3,1.5,3.4,2.7,5,3.8c1.5,1,4.4,2.1,6.1,2.6c6.5,2,14,1.2,19.9-1.8c5.3-2.6,8.7-6.6,12.7-10.7 l11.7-11.7c1-1,2-2.1,3-3c0.6-0.6,2.1-2.4,2.6-3.2c1.8-2.9,2.7-4.4,3.8-7.9c1-3.3,1.3-7.3,0.9-10.8c-0.6-5.4-2.3-8.8-4.9-12.8 c-0.2-0.3-0.4-0.5-0.7-0.8c-1.9-2.6-5.6-5.9-7.9-8.2l-11.7-11.7c-1.5-1.5-2.9-3-4.5-4.3c-5.5-4.5-13.1-6.8-20.4-6 c-6.4,0.7-11.7,3.5-16,7.6c-3.6,3.4-8.1,8.1-11.7,11.7c-2.4,2.4-6.6,6.4-8.8,8.8l-1.4,1.5c-0.4,0.5-0.9,1.1-1.3,1.7 c-0.4,0.7-0.8,1.1-1.2,1.8c-1.9,3.6-3.3,6.8-3.6,11.1C-126.2,279-126.2,282.1-126.1,283.4 M-81.6,250.3c11-1.3,14.5,9.3,14,18.5 c-0.2,3.5-0.2,6.6-0.8,10c-1,5.9-3,11.7-5.8,16c-0.7,1.2-1.2,2.4-3.3,2.2c-0.6-0.1-1.4-0.7-1.6-1.1c-1.1-1.5-0.3-3,0.4-4.1 c4.3-7.2,5.7-15.7,5.4-24.4c-0.1-3.6-0.7-10.6-4.9-11.4c-2.4-0.5-4.7-0.1-6.3,1.7c-1.3,1.6-2,3.6-2.4,5.8c-1.8,9.7,1.3,27.9,7,35.6 c2.4,3.2,1.6,2.3,4.3,3.8c1.7,0.9,2.4,1.1,4.4,1.1c2.3,0,5.1-2.5,6.8-4c1.4-1.2,2.7-2.8,3.8-4.3c0.8-1,1.2-2.4,3.1-2.5 c1,0,1.4,0.4,1.9,0.9c1.4,1.7-0.3,3.6-1.8,5.5c-2.8,3.7-7.6,8.5-12.6,9.1c-2,0.2-2.5,0.7-4.8,0.2c-1.5-0.4-2.7-1-3.9-1.7 c-2.6-1.4-3.8-3-5.5-5.3c-0.8-1.1-1.4-2.1-2.1-3.3c-4.9-9-7.6-26.4-5.7-36.7C-90.7,255.9-88.1,251-81.6,250.3z M-91.1,303.7 c1.5-0.6,3,0.9,3.3,2.1c0.4,1.7-0.9,3-2.1,3.3C-92.6,309.8-95.4,305.4-91.1,303.7z"></path><path id="XMLID_1_" class="st4" d="M-81.6,250.3c11-1.3,14.5,9.3,14,18.5c-0.2,3.5-0.2,6.6-0.8,10c-1,5.9-3,11.7-5.8,16 c-0.7,1.2-1.2,2.4-3.3,2.2c-0.6-0.1-1.4-0.7-1.6-1.1c-1.1-1.5-0.3-3,0.4-4.1c4.3-7.2,5.7-15.7,5.4-24.4c-0.1-3.6-0.7-10.6-4.9-11.4 c-2.4-0.5-4.7-0.1-6.3,1.7c-1.3,1.6-2,3.6-2.4,5.8c-1.8,9.7,1.3,27.9,7,35.6c2.4,3.2,1.6,2.3,4.3,3.8c1.7,0.9,2.4,1.1,4.4,1.1 c2.3,0,5.1-2.5,6.8-4c1.4-1.2,2.7-2.8,3.8-4.3c0.8-1,1.2-2.4,3.1-2.5c1,0,1.4,0.4,1.9,0.9c1.4,1.7-0.3,3.6-1.8,5.5 c-2.8,3.7-7.6,8.5-12.6,9.1c-2,0.2-2.5,0.7-4.8,0.2c-1.5-0.4-2.7-1-3.9-1.7c-2.6-1.4-3.8-3-5.5-5.3c-0.8-1.1-1.4-2.1-2.1-3.3 c-4.9-9-7.6-26.4-5.7-36.7C-90.7,255.9-88.1,251-81.6,250.3 M-91.1,303.7c-4.3,1.7-1.5,6.1,1.2,5.3c1.2-0.3,2.5-1.6,2.1-3.3 C-88.1,304.6-89.6,303.1-91.1,303.7"></path></svg>